<svg width="25" height="24" viewBox="0 0 25 24" fill="none" xmlns="http://www.w3.org/2000/svg">
<path fill-rule="evenodd" clip-rule="evenodd" d="M10.1391 14.3499L7.72875 11.9409L6.27125 13.3997L10.1474 17.2745L18.7329 8.601L17.2671 7.149L10.1391 14.3499ZM12.5 20.9375C7.572 20.9375 3.5625 16.928 3.5625 12C3.5625 7.072 7.572 3.0625 12.5 3.0625C17.428 3.0625 21.4375 7.072 21.4375 12C21.4375 16.928 17.428 20.9375 12.5 20.9375ZM12.5 1C6.42525 1 1.5 5.92525 1.5 12C1.5 18.0748 6.42525 23 12.5 23C18.5748 23 23.5 18.0748 23.5 12C23.5 5.92525 18.5748 1 12.5 1Z" fill="black"/>
<path fill-rule="evenodd" clip-rule="evenodd" d="M10.1391 14.3499L7.72875 11.9409L6.27125 13.3997L10.1474 17.2745L18.7329 8.601L17.2671 7.149L10.1391 14.3499ZM12.5 20.9375C7.572 20.9375 3.5625 16.928 3.5625 12C3.5625 7.072 7.572 3.0625 12.5 3.0625C17.428 3.0625 21.4375 7.072 21.4375 12C21.4375 16.928 17.428 20.9375 12.5 20.9375ZM12.5 1C6.42525 1 1.5 5.92525 1.5 12C1.5 18.0748 6.42525 23 12.5 23C18.5748 23 23.5 18.0748 23.5 12C23.5 5.92525 18.5748 1 12.5 1Z" fill="black"/>
</svg>
