<svg width="25" height="24" viewBox="0 0 25 24" fill="none" xmlns="http://www.w3.org/2000/svg">
<g clip-path="url(#clip0_1136_41251)">
<g clip-path="url(#clip1_1136_41251)">
<path fill-rule="evenodd" clip-rule="evenodd" d="M13.3256 1.29446L24.5126 21.9375C24.8756 22.6545 24.5786 23.244 23.8496 23.244H1.48155C0.755552 23.244 0.458552 22.6545 0.821552 21.9375L12.0056 1.29446C12.3686 0.577464 12.9641 0.577464 13.3256 1.29446ZM12.7255 16.3287C12.1405 16.3287 11.6686 15.8507 11.6686 15.2624V8.4635C11.6686 7.87331 12.1425 7.39722 12.7255 7.39722C13.3105 7.39722 13.7825 7.87528 13.7825 8.4635V15.2605C13.7825 15.8507 13.3086 16.3287 12.7255 16.3287ZM12.043 18.849C12.784 18.5047 13.6674 18.8313 14.0087 19.5789C14.3519 20.3245 14.0301 21.2137 13.2891 21.56C12.55 21.9062 11.6666 21.5816 11.3234 20.834C10.9822 20.0845 11.3039 19.1972 12.043 18.849Z" fill="#F5E11B"/>
<path d="M11.6686 15.2624C11.6686 15.8507 12.1405 16.3287 12.7255 16.3287C13.3086 16.3287 13.7824 15.8507 13.7824 15.2605V8.4635C13.7824 7.87527 13.3105 7.39722 12.7255 7.39722C12.1424 7.39722 11.6686 7.87331 11.6686 8.4635V15.2624Z" fill="#3F3F3F"/>
<path d="M14.0086 19.5789C13.6674 18.8313 12.784 18.5047 12.043 18.849C11.3039 19.1972 10.9821 20.0845 11.3234 20.834C11.6666 21.5816 12.55 21.9062 13.2891 21.56C14.0301 21.2137 14.3518 20.3245 14.0086 19.5789Z" fill="#3F3F3F"/>
</g>
</g>
<defs>
<clipPath id="clip0_1136_41251">
<rect width="24" height="24" fill="white" transform="translate(0.666626)"/>
</clipPath>
<clipPath id="clip1_1136_41251">
<rect width="24" height="24" fill="white" transform="translate(0.666626)"/>
</clipPath>
</defs>
</svg>
