<svg width="28" height="28" viewBox="0 0 28 28" fill="none" xmlns="http://www.w3.org/2000/svg">
<rect x="1" y="1" width="26" height="26" stroke="black" stroke-width="2"/>
<path fill-rule="evenodd" clip-rule="evenodd" d="M18.5 15.5C18.2135 15.5 17.9375 15.455 17.66 15.4145C17.3075 15.365 16.9685 15.2825 16.6385 15.1745C16.6205 15.1685 16.601 15.1625 16.583 15.1565C16.2725 15.0515 15.977 14.9225 15.692 14.771C15.6515 14.747 15.6095 14.7245 15.569 14.7035C15.3095 14.5565 15.0665 14.396 14.834 14.2145C14.768 14.1635 14.7065 14.1095 14.642 14.0555C14.441 13.886 14.2505 13.7105 14.0735 13.5155C13.9895 13.424 13.9145 13.3265 13.838 13.229C13.6955 13.052 13.5545 12.875 13.433 12.6815C13.343 12.5375 13.2695 12.3845 13.19 12.233C13.1015 12.065 13.01 11.9015 12.938 11.723C12.8525 11.5145 12.7955 11.2925 12.7355 11.072C12.698 10.931 12.6455 10.7975 12.617 10.655C12.542 10.2815 12.5 9.896 12.5 9.5C12.5 9.3155 12.5375 9.1415 12.554 8.96C12.635 8.084 12.8975 7.2665 13.3145 6.5375C13.6715 5.9135 14.1335 5.3675 14.6825 4.91C14.756 4.8485 14.828 4.7855 14.9045 4.727C15.053 4.6145 15.206 4.5065 15.3665 4.406C15.5525 4.2905 15.7475 4.1885 15.947 4.0925C16.0805 4.0295 16.214 3.9695 16.352 3.914C16.6055 3.815 16.868 3.734 17.138 3.6695C17.237 3.647 17.336 3.626 17.4365 3.6065C17.7815 3.5435 18.1355 3.5 18.5 3.5C21.809 3.5 24.5 6.191 24.5 9.5C24.5 9.8855 24.4565 10.259 24.386 10.6235C24.362 10.7525 24.32 10.874 24.287 11C24.227 11.225 24.164 11.45 24.08 11.6645C24.0215 11.816 23.951 11.96 23.8805 12.104C23.7965 12.2765 23.7095 12.4415 23.609 12.602C23.513 12.7625 23.411 12.9125 23.3 13.0625C23.21 13.184 23.111 13.298 23.012 13.4105C22.871 13.574 22.73 13.733 22.5725 13.88C22.5065 13.9415 22.433 13.994 22.3625 14.0525C21.671 14.642 20.852 15.0785 19.9445 15.3035L19.943 15.305C19.478 15.4205 18.9995 15.5 18.5 15.5ZM20.267 20.7185H7.733L10.34 18.539V12.557C10.34 11.4425 10.5845 10.5935 11.048 9.9725C11.279 13.607 14.0765 16.511 17.66 16.9145V18.539L20.267 20.7185ZM26 9.5C26 5.357 22.643 2 18.5 2C15.275 2 12.5465 4.0475 11.489 6.9065C9.212 7.757 8.057 9.8375 8.057 12.557V17.4725L5 20.027V23H11C11 24.656 12.344 26 14 26C15.656 26 17 24.656 17 23H23V20.027L19.943 17.4725V16.8545C23.3945 16.181 26 13.148 26 9.5ZM20.768 6.9695L17.249 10.439L16.2365 9.4265L15.176 10.487L17.24 12.551L21.8195 8.039L20.768 6.9695Z" fill="black"/>
</svg>
