<svg width="25" height="24" viewBox="0 0 25 24" fill="none" xmlns="http://www.w3.org/2000/svg">
<g clip-path="url(#clip0_1136_41250)">
<g clip-path="url(#clip1_1136_41250)">
<path fill-rule="evenodd" clip-rule="evenodd" d="M13.1957 0.357252C12.7194 -0.119085 11.9471 -0.119084 11.4708 0.357253L0.690504 11.1375C0.214167 11.6139 0.214168 12.3861 0.690505 12.8625L11.4708 23.6427C11.9471 24.1191 12.7194 24.1191 13.1957 23.6427L23.976 12.8625C24.4523 12.3861 24.4523 11.6139 23.976 11.1375L13.1957 0.357252ZM12.4233 14.2674C11.8503 14.2674 11.3881 13.7991 11.3881 13.2229V6.34171C11.3881 5.76362 11.8522 5.2973 12.4233 5.2973C12.9964 5.2973 13.4586 5.76555 13.4586 6.34171V13.221C13.4586 13.7991 12.9944 14.2674 12.4233 14.2674ZM11.7548 16.7359C12.4806 16.3987 13.3459 16.7186 13.6802 17.4508C14.0163 18.1811 13.7012 19.0521 12.9753 19.3913C12.2514 19.7304 11.3862 19.4125 11.05 18.6802C10.7157 17.9461 11.0309 17.077 11.7548 16.7359Z" fill="#EC8629"/>
<path d="M11.388 13.2229C11.388 13.799 11.8503 14.2673 12.4233 14.2673C12.9944 14.2673 13.4585 13.799 13.4585 13.221V6.34165C13.4585 5.76549 12.9963 5.29724 12.4233 5.29724C11.8522 5.29724 11.388 5.76356 11.388 6.34165V13.2229Z" fill="white"/>
<path d="M13.6801 17.4508C13.3459 16.7185 12.4806 16.3987 11.7548 16.7359C11.0309 17.0769 10.7157 17.946 11.05 18.6802C11.3861 19.4124 12.2514 19.7304 12.9753 19.3912C13.7011 19.0521 14.0163 18.1811 13.6801 17.4508Z" fill="white"/>
</g>
</g>
<defs>
<clipPath id="clip0_1136_41250">
<rect width="24" height="24" fill="white" transform="translate(0.333252)"/>
</clipPath>
<clipPath id="clip1_1136_41250">
<rect width="24" height="24" fill="white" transform="translate(0.333252)"/>
</clipPath>
</defs>
</svg>
