<svg width="24" height="24" viewBox="0 0 24 24" fill="none" xmlns="http://www.w3.org/2000/svg">
<path d="M4.53906 10.2041H17.465" stroke="black" stroke-width="1.85"/>
<path d="M10.5718 20.7074C8.56669 20.5897 6.64077 19.8679 5.03762 18.6333C3.43447 17.3987 2.22611 15.7068 1.56532 13.7714C0.904541 11.836 0.821023 9.7442 1.32533 7.76039C1.82964 5.77659 2.89912 3.98994 4.39853 2.62636C5.89795 1.26279 7.75995 0.383538 9.74907 0.0997972C11.7382 -0.183943 13.7651 0.14057 15.5735 1.0323C17.3819 1.92403 18.8905 3.34293 19.9086 5.10957C20.9267 6.8762 21.4086 8.91123 21.2932 10.9573L19.4491 10.8491C19.5435 9.17517 19.1493 7.51031 18.3164 6.06502C17.4834 4.61973 16.2492 3.45892 14.7698 2.7294C13.2903 1.99987 11.6321 1.73438 10.0048 1.96651C8.3775 2.19864 6.85419 2.91796 5.62752 4.0335C4.40084 5.14905 3.5259 6.61071 3.11332 8.23367C2.70075 9.85662 2.76907 11.568 3.30966 13.1513C3.85025 14.7346 4.83882 16.1188 6.15036 17.1288C7.4619 18.1389 9.0375 18.7294 10.6779 18.8256L10.5718 20.7074Z" fill="black"/>
<path d="M13.5385 14.9213L20.0787 21.4615M20.5355 21.5355C18.5829 23.4882 15.4171 23.4882 13.4645 21.5355C11.5118 19.5829 11.5118 16.4171 13.4645 14.4645C15.4171 12.5118 18.5829 12.5118 20.5355 14.4645C22.4882 16.4171 22.4882 19.5829 20.5355 21.5355Z" stroke="black" stroke-width="1.5"/>
</svg>
