<svg width="24" height="24" viewBox="0 0 24 24" fill="none" xmlns="http://www.w3.org/2000/svg">
<g clip-path="url(#clip0_1102_67918)">
<path fill-rule="evenodd" clip-rule="evenodd" d="M18.2123 17.1635H8.11877L15.6068 9.67699V14.9855L18.2123 17.1635ZM8.28527 9.00349C8.28527 6.44899 9.48977 5.20699 11.9663 5.20699C13.1828 5.20699 14.7008 5.46799 15.3173 7.18249L8.28527 14.2145V9.00349ZM17.8883 9.00349C17.8883 8.48449 17.8358 7.99849 17.7533 7.52899L23.1413 2.14099L21.7493 0.750488L17.0333 5.46649C16.3223 4.25599 15.1583 3.42349 13.5548 3.09349C13.5548 3.08149 13.5608 3.07249 13.5608 3.06199C13.5608 2.16949 12.8378 1.44499 11.9453 1.44499C11.0543 1.44499 10.3298 2.16949 10.3298 3.06199C10.3298 3.07549 10.3388 3.08899 10.3388 3.10399C7.46777 3.70849 6.00227 5.94649 6.00227 9.00349V13.919L2.94527 16.472V19.445H3.05477L0.749268 21.7505L2.14127 23.141L5.83727 19.445H8.94527C8.94527 21.1025 10.2893 22.445 11.9453 22.445C13.6028 22.445 14.9453 21.1025 14.9453 19.445H20.9453V16.472L17.8883 13.919V9.00349Z" fill="black"/>
</g>
<defs>
<clipPath id="clip0_1102_67918">
<rect width="24" height="24" fill="white"/>
</clipPath>
</defs>
</svg>
