<svg width="24" height="24" viewBox="0 0 24 24" fill="none" xmlns="http://www.w3.org/2000/svg">
<g clip-path="url(#clip0_1102_67893)">
<path fill-rule="evenodd" clip-rule="evenodd" d="M12.8355 8.39951H11.3355V14.1715L15.8505 18.5395L16.893 17.461L12.8355 13.5355V8.39951ZM12.0855 21.43C7.83155 21.43 4.37105 17.968 4.37105 13.714C4.37105 9.46001 7.83155 5.99951 12.0855 5.99951C16.3395 5.99951 19.8 9.46001 19.8 13.714C19.8 17.968 16.3395 21.43 12.0855 21.43ZM19.7355 6.85601L20.8275 5.76251L18.3225 3.25751L16.935 4.64501C15.804 4.03901 14.547 3.63851 13.2105 3.49301V2.24951H15.0855V-0.000488281H9.08555V2.24951H10.9605V3.49301C9.62405 3.63851 8.36705 4.03901 7.23605 4.64501L5.84855 3.25751L3.34355 5.76251L4.43555 6.85601C2.80355 8.67701 1.80005 11.0755 1.80005 13.714C1.80005 19.3945 6.40505 23.9995 12.0855 23.9995C17.766 23.9995 22.371 19.3945 22.371 13.714C22.371 11.0755 21.3675 8.67701 19.7355 6.85601Z" fill="black"/>
</g>
<defs>
<clipPath id="clip0_1102_67893">
<rect width="24" height="24" fill="white"/>
</clipPath>
</defs>
</svg>
