<svg width="24" height="24" viewBox="0 0 24 24" fill="none" xmlns="http://www.w3.org/2000/svg">
<path fill-rule="evenodd" clip-rule="evenodd" d="M12 20.125C7.52 20.125 3.875 16.48 3.875 12C3.875 7.52 7.52 3.875 12 3.875C16.48 3.875 20.125 7.52 20.125 12C20.125 16.48 16.48 20.125 12 20.125ZM12 2C6.4775 2 2 6.4775 2 12C2 17.5225 6.4775 22 12 22C17.5225 22 22 17.5225 22 12C22 6.4775 17.5225 2 12 2Z" fill="black"/>
<path fill-rule="evenodd" clip-rule="evenodd" d="M12 20.125C7.52 20.125 3.875 16.48 3.875 12C3.875 7.52 7.52 3.875 12 3.875C16.48 3.875 20.125 7.52 20.125 12C20.125 16.48 16.48 20.125 12 20.125ZM12 2C6.4775 2 2 6.4775 2 12C2 17.5225 6.4775 22 12 22C17.5225 22 22 17.5225 22 12C22 6.4775 17.5225 2 12 2Z" fill="black"/>
<path d="M8.76154 17C8.69808 17 8.64097 16.981 8.5902 16.9429C8.55212 16.8921 8.53308 16.835 8.53308 16.7716V15.1533C8.53308 15.0391 8.56481 14.9502 8.62827 14.8867L13.3117 9.38463C13.3752 9.30848 13.3562 9.2704 13.2546 9.2704H8.85673C8.79327 9.2704 8.73616 9.25136 8.68539 9.21329C8.64731 9.16252 8.62827 9.1054 8.62827 9.04194V7.49982C8.62827 7.43636 8.64731 7.38559 8.68539 7.34752C8.73616 7.29675 8.79327 7.27136 8.85673 7.27136H15.7867C15.8502 7.27136 15.901 7.29675 15.939 7.34752C15.9898 7.38559 16.0152 7.43636 16.0152 7.49982V9.11809C16.0152 9.21963 15.9771 9.30848 15.901 9.38463L11.1223 14.8867C11.0715 14.9629 11.0906 15.001 11.1794 15.001H15.8439C15.9073 15.001 15.9581 15.0264 15.9962 15.0771C16.0469 15.1152 16.0723 15.166 16.0723 15.2294V16.7716C16.0723 16.835 16.0469 16.8921 15.9962 16.9429C15.9581 16.981 15.9073 17 15.8439 17H8.76154Z" fill="black"/>
<path d="M1.92838 6.44051C0.863372 5.17129 1.02892 3.27902 2.29815 2.21401L3.83024 0.928438C5.09946 -0.136567 6.99173 0.0289845 8.05673 1.29821L1.92838 6.44051Z" fill="black"/>
<path d="M16 1.29815C17.065 0.0289235 18.9573 -0.136628 20.2265 0.928377L21.7586 2.21395C23.0278 3.27896 23.1934 5.17122 22.1284 6.44045L16 1.29815Z" fill="black"/>
<path d="M3.46967 22.298C3.17678 22.5909 3.17678 23.0658 3.46967 23.3587C3.76256 23.6516 4.23744 23.6516 4.53033 23.3587L3.46967 22.298ZM7.35876 20.5303L7.88909 19.9999L6.82843 18.9393L6.2981 19.4696L7.35876 20.5303ZM4.53033 23.3587L7.35876 20.5303L6.2981 19.4696L3.46967 22.298L4.53033 23.3587Z" fill="black"/>
<path d="M17.5303 19.4697L17 18.9393L15.9393 20L16.4697 20.5303L17.5303 19.4697ZM19.2981 23.3588C19.591 23.6517 20.0659 23.6517 20.3588 23.3588C20.6517 23.0659 20.6517 22.591 20.3588 22.2981L19.2981 23.3588ZM16.4697 20.5303L19.2981 23.3588L20.3588 22.2981L17.5303 19.4697L16.4697 20.5303Z" fill="black"/>
</svg>
