<svg width="24" height="24" viewBox="0 0 24 24" fill="none" xmlns="http://www.w3.org/2000/svg">
<path fill-rule="evenodd" clip-rule="evenodd" d="M12.0002 20.125C7.52024 20.125 3.87524 16.48 3.87524 12C3.87524 7.52 7.52024 3.875 12.0002 3.875C16.4802 3.875 20.1252 7.52 20.1252 12C20.1252 16.48 16.4802 20.125 12.0002 20.125ZM12.0002 2C6.47774 2 2.00024 6.4775 2.00024 12C2.00024 17.5225 6.47774 22 12.0002 22C17.5227 22 22.0002 17.5225 22.0002 12C22.0002 6.4775 17.5227 2 12.0002 2Z" fill="black"/>
<path fill-rule="evenodd" clip-rule="evenodd" d="M12.0002 20.125C7.52024 20.125 3.87524 16.48 3.87524 12C3.87524 7.52 7.52024 3.875 12.0002 3.875C16.4802 3.875 20.1252 7.52 20.1252 12C20.1252 16.48 16.4802 20.125 12.0002 20.125ZM12.0002 2C6.47774 2 2.00024 6.4775 2.00024 12C2.00024 17.5225 6.47774 22 12.0002 22C17.5227 22 22.0002 17.5225 22.0002 12C22.0002 6.4775 17.5227 2 12.0002 2Z" fill="black"/>
<path d="M8.76166 17C8.6982 17 8.64109 16.981 8.59032 16.9429C8.55224 16.8921 8.5332 16.835 8.5332 16.7716V15.1533C8.5332 15.0391 8.56493 14.9502 8.6284 14.8867L13.3119 9.38463C13.3753 9.30848 13.3563 9.2704 13.2547 9.2704H8.85686C8.7934 9.2704 8.73628 9.25136 8.68551 9.21329C8.64743 9.16252 8.6284 9.1054 8.6284 9.04194V7.49982C8.6284 7.43636 8.64743 7.38559 8.68551 7.34752C8.73628 7.29675 8.7934 7.27136 8.85686 7.27136H15.7869C15.8503 7.27136 15.9011 7.29675 15.9392 7.34752C15.9899 7.38559 16.0153 7.43636 16.0153 7.49982V9.11809C16.0153 9.21963 15.9772 9.30848 15.9011 9.38463L11.1224 14.8867C11.0717 14.9629 11.0907 15.001 11.1795 15.001H15.844C15.9074 15.001 15.9582 15.0264 15.9963 15.0771C16.0471 15.1152 16.0724 15.166 16.0724 15.2294V16.7716C16.0724 16.835 16.0471 16.8921 15.9963 16.9429C15.9582 16.981 15.9074 17 15.844 17H8.76166Z" fill="black"/>
<path d="M1.9285 6.44051C0.863494 5.17129 1.02905 3.27902 2.29827 2.21401L3.83036 0.928438C5.09958 -0.136567 6.99185 0.0289845 8.05685 1.29821L1.9285 6.44051Z" fill="black"/>
<path d="M16.0002 1.29815C17.0652 0.0289235 18.9575 -0.136628 20.2267 0.928377L21.7588 2.21395C23.0281 3.27896 23.1936 5.17122 22.1286 6.44045L16.0002 1.29815Z" fill="black"/>
<path d="M3.46991 22.298C3.17702 22.5909 3.17702 23.0658 3.46991 23.3587C3.76281 23.6516 4.23768 23.6516 4.53057 23.3587L3.46991 22.298ZM7.359 20.5303L7.88933 19.9999L6.82867 18.9393L6.29834 19.4696L7.359 20.5303ZM4.53057 23.3587L7.359 20.5303L6.29834 19.4696L3.46991 22.298L4.53057 23.3587Z" fill="black"/>
<path d="M17.5306 19.4697L17.0002 18.9393L15.9396 20L16.4699 20.5303L17.5306 19.4697ZM19.2983 23.3588C19.5912 23.6517 20.0661 23.6517 20.359 23.3588C20.6519 23.0659 20.6519 22.591 20.359 22.2981L19.2983 23.3588ZM16.4699 20.5303L19.2983 23.3588L20.359 22.2981L17.5306 19.4697L16.4699 20.5303Z" fill="black"/>
</svg>
