<svg width="28" height="28" viewBox="0 0 28 28" fill="none" xmlns="http://www.w3.org/2000/svg">
<g clip-path="url(#clip0_1102_67928)">
<path fill-rule="evenodd" clip-rule="evenodd" d="M5.06147 9.21727L6.55397 9.36127C6.67697 8.08777 7.24397 6.95377 8.19497 6.08377L7.18247 4.97677C5.97047 6.08677 5.21747 7.59277 5.06147 9.21727ZM6.67247 3.27727L5.88647 1.99927C3.26747 3.61177 1.81997 6.35527 2.01797 9.33877L3.51497 9.23977C3.35447 6.82027 4.53497 4.59277 6.67247 3.27727ZM18.5 15.4993C15.191 15.4993 12.5 12.8098 12.5 9.49927C12.5 7.75177 13.2635 6.19027 14.4605 5.09377C14.9915 4.60777 15.602 4.20877 16.2815 3.93577C16.3625 3.90277 16.451 3.88777 16.5335 3.85777C16.7975 3.76477 17.0615 3.67327 17.3405 3.61777C17.7155 3.54127 18.1025 3.49927 18.5 3.49927C21.809 3.49927 24.5 6.19027 24.5 9.49927C24.5 9.88477 24.4565 10.2583 24.386 10.6228C24.362 10.7518 24.32 10.8733 24.287 10.9993C24.227 11.2258 24.164 11.4493 24.08 11.6653C24.0215 11.8153 23.951 11.9593 23.8805 12.1048C23.7965 12.2758 23.7095 12.4408 23.609 12.6028C23.513 12.7618 23.411 12.9133 23.3 13.0618C23.21 13.1848 23.1125 13.2988 23.012 13.4113C22.871 13.5733 22.73 13.7338 22.5725 13.8793C22.505 13.9408 22.433 13.9948 22.364 14.0533C21.671 14.6413 20.8535 15.0778 19.9445 15.3043L19.943 15.3058C19.478 15.4213 18.9995 15.4993 18.5 15.4993ZM26 9.49927C26 5.35777 22.6415 1.99927 18.5 1.99927C15.2645 1.99927 12.533 4.06027 11.48 6.93127C9.21647 7.78477 8.05697 9.84577 8.05697 12.5578V17.4733L4.99997 20.0263V22.9993H11C11 24.6568 12.3425 25.9993 14 25.9993C15.656 25.9993 17 24.6568 17 22.9993H23V20.0263L19.943 17.4733V16.8553C23.393 16.1818 26 13.1473 26 9.49927ZM20.7665 6.97027L17.249 10.4368L16.238 9.42727L15.1775 10.4878L17.2415 12.5533L21.8195 8.03977L20.7665 6.97027Z" fill="black"/>
</g>
<rect x="1" y="1" width="26" height="26" stroke="black" stroke-width="2"/>
<defs>
<clipPath id="clip0_1102_67928">
<rect x="2" y="2" width="24" height="24" fill="white"/>
</clipPath>
</defs>
</svg>
