<svg width="24" height="24" viewBox="0 0 24 24" fill="none" xmlns="http://www.w3.org/2000/svg">
<g clip-path="url(#clip0_1102_67938)">
<path fill-rule="evenodd" clip-rule="evenodd" d="M4.55422 7.36074C4.67722 6.08724 5.24422 4.95474 6.19522 4.08324L5.18272 2.97624C3.97072 4.08624 3.21772 5.59224 3.06172 7.21674L4.55422 7.36074ZM4.67272 1.27674L3.88672 0.000244141C1.26772 1.61124 -0.179783 4.35474 0.0182175 7.33824L1.51522 7.23924C1.35472 4.82124 2.53522 2.59224 4.67272 1.27674ZM20.3162 7.21674C20.1602 5.59224 19.4072 4.08624 18.1952 2.97624L17.1827 4.08324C18.1337 4.95474 18.7007 6.08724 18.8237 7.36074L20.3162 7.21674ZM19.4912 0.000244141L18.7052 1.27674C20.8412 2.59224 22.0232 4.82124 21.8627 7.23924L23.3597 7.33824C23.5562 4.35474 22.1102 1.61124 19.4912 0.000244141ZM17.6312 10.3457C17.6312 7.27674 16.1837 5.02974 13.2977 4.43724C13.2977 4.42524 13.3037 4.41624 13.3037 4.40424C13.3037 3.51324 12.5807 2.78874 11.6882 2.78874C10.7972 2.78874 10.0727 3.51324 10.0727 4.40424C10.0727 4.41924 10.0817 4.43274 10.0817 4.44774C7.21072 5.05224 5.74522 7.29024 5.74522 10.3457V15.2627L2.68822 17.8157V20.7887H8.68822C8.68822 22.4462 10.0322 23.7887 11.6882 23.7887C13.3457 23.7887 14.6882 22.4462 14.6882 20.7887H20.6882V17.8157L17.6312 15.2627V10.3457Z" fill="black"/>
</g>
<defs>
<clipPath id="clip0_1102_67938">
<rect width="24" height="24" fill="white"/>
</clipPath>
</defs>
</svg>
