<svg width="24" height="24" viewBox="0 0 24 24" fill="none" xmlns="http://www.w3.org/2000/svg">
<path fill-rule="evenodd" clip-rule="evenodd" d="M5.73349 17.2178L8.33899 15.0398V9.05777C8.33899 6.50327 9.54349 5.26127 12.02 5.26127C13.5815 5.26127 15.6605 5.65577 15.6605 9.05777V15.0398L18.266 17.2178H5.73349ZM17.9435 13.9733V9.05777C17.9435 5.98877 16.496 3.74177 13.6085 3.14777C13.6085 3.13577 13.616 3.12677 13.616 3.11627C13.616 2.22377 12.8915 1.49927 12.0005 1.49927C11.108 1.49927 10.385 2.22377 10.385 3.11627C10.385 3.12977 10.3925 3.14327 10.3925 3.15827C7.52149 3.76277 6.05749 6.00077 6.05749 9.05777V13.9733L3.00049 16.5263V19.4993H9.00049C9.00049 21.1568 10.343 22.4993 12.0005 22.4993C13.6565 22.4993 15.0005 21.1568 15.0005 19.4993H21.0005V16.5263L17.9435 13.9733Z" fill="black"/>
</svg>
