<svg width="24" height="24" viewBox="0 0 24 24" fill="none" xmlns="http://www.w3.org/2000/svg">
<g clip-path="url(#clip0_1136_44773)">
<path fill-rule="evenodd" clip-rule="evenodd" d="M18.4846 1.48145H5.84259C5.51531 1.48145 5.25 1.74676 5.25 2.07404V21.9259C5.25 22.2532 5.51531 22.5185 5.84259 22.5185H18.4846C18.8118 22.5185 19.0772 22.2532 19.0772 21.9259V2.07404C19.0772 1.74676 18.8118 1.48145 18.4846 1.48145ZM12.1712 14.2649C11.6049 14.2649 11.1481 13.8027 11.1481 13.234V6.36422C11.1481 5.7936 11.6068 5.3333 12.1712 5.3333C12.7375 5.3333 13.1943 5.7955 13.1943 6.36422V13.2321C13.1943 13.8027 12.7356 14.2649 12.1712 14.2649ZM11.5105 16.7017C12.2278 16.3688 13.0829 16.6845 13.4133 17.4073C13.7455 18.1282 13.434 18.988 12.7167 19.3227C12.0013 19.6575 11.1462 19.3436 10.814 18.6209C10.4837 17.8962 10.7951 17.0383 11.5105 16.7017Z" fill="white"/>
<path d="M12.1541 14.2649C11.5878 14.2649 11.131 13.8027 11.131 13.234V6.36418C11.131 5.79355 11.5897 5.33325 12.1541 5.33325C12.7204 5.33325 13.1772 5.79546 13.1772 6.36418V13.2321C13.1772 13.8027 12.7185 14.2649 12.1541 14.2649Z" fill="#916AAD"/>
<path d="M11.4934 16.7016C12.2107 16.3687 13.0658 16.6845 13.3962 17.4073C13.7284 18.1282 13.4169 18.9879 12.6996 19.3227C11.9842 19.6574 11.1291 19.3436 10.7969 18.6208C10.4665 17.8961 10.778 17.0383 11.4934 16.7016Z" fill="#916AAD"/>
<path fill-rule="evenodd" clip-rule="evenodd" d="M3.75 2.07407C3.75 0.928595 4.67859 0 5.82407 0H18.466C19.6115 0 20.5401 0.928595 20.5401 2.07407V21.9259C20.5401 23.0714 19.6115 24 18.466 24H5.82407C4.67859 24 3.75 23.0714 3.75 21.9259V2.07407ZM5.82407 1.48148H18.466C18.7933 1.48148 19.0586 1.74679 19.0586 2.07407V21.9259C19.0586 22.2532 18.7933 22.5185 18.466 22.5185H5.82407C5.49679 22.5185 5.23148 22.2532 5.23148 21.9259V2.07407C5.23148 1.74679 5.49679 1.48148 5.82407 1.48148Z" fill="#916AAD"/>
</g>
<defs>
<clipPath id="clip0_1136_44773">
<rect width="24" height="24" fill="white"/>
</clipPath>
</defs>
</svg>
