<svg width="24" height="24" viewBox="0 0 24 24" fill="none" xmlns="http://www.w3.org/2000/svg">
<g clip-path="url(#clip0_1136_41249)">
<g clip-path="url(#clip1_1136_41249)">
<path fill-rule="evenodd" clip-rule="evenodd" d="M0 12C0 5.3835 5.3835 0 12 0C18.6165 0 24 5.3835 24 12C24 18.6165 18.6165 24 12 24C5.3835 24 0 18.6165 0 12ZM7.57449 13.1328C7.57449 13.7145 8.04588 14.1872 8.63026 14.1872C9.21269 14.1872 9.68604 13.7145 9.68604 13.1309V6.25636C9.68604 5.67469 9.21464 5.20197 8.63026 5.20197C8.04783 5.20197 7.57449 5.67275 7.57449 6.25636V13.1328ZM9.912 17.3711C9.57111 16.6318 8.6887 16.3089 7.94849 16.6493C7.21022 16.9937 6.88882 17.871 7.2297 18.6122C7.57254 19.3514 8.45495 19.6724 9.19321 19.33C9.93343 18.9877 10.2548 18.1084 9.912 17.3711ZM15.2509 14.3054C14.6666 14.3054 14.1952 13.8327 14.1952 13.251V6.37459C14.1952 5.79098 14.6685 5.3202 15.2509 5.3202C15.8353 5.3202 16.3067 5.79292 16.3067 6.37459V13.2491C16.3067 13.8327 15.8334 14.3054 15.2509 14.3054ZM14.5692 16.7676C15.3094 16.4271 16.1918 16.75 16.5327 17.4893C16.8755 18.2266 16.5541 19.1059 15.8139 19.4483C15.0756 19.7907 14.1932 19.4697 13.8504 18.7304C13.5095 17.9892 13.8309 17.1119 14.5692 16.7676Z" fill="#E22028"/>
<path d="M8.63017 14.1872C8.04579 14.1872 7.5744 13.7145 7.5744 13.1329V6.25642C7.5744 5.67281 8.04774 5.20203 8.63017 5.20203C9.21455 5.20203 9.68595 5.67475 9.68595 6.25642V13.1309C9.68595 13.7145 9.2126 14.1872 8.63017 14.1872Z" fill="white"/>
<path d="M7.9484 16.6494C8.68861 16.3089 9.57102 16.6319 9.91191 17.3711C10.2547 18.1084 9.93334 18.9877 9.19312 19.3301C8.45486 19.6725 7.57245 19.3515 7.22961 18.6123C6.88873 17.8711 7.21013 16.9937 7.9484 16.6494Z" fill="white"/>
<path d="M15.2509 14.3053C14.6665 14.3053 14.1951 13.8326 14.1951 13.2509V6.37446C14.1951 5.79085 14.6684 5.32007 15.2509 5.32007C15.8352 5.32007 16.3066 5.79279 16.3066 6.37446V13.249C16.3066 13.8326 15.8333 14.3053 15.2509 14.3053Z" fill="white"/>
<path d="M14.5691 16.7674C15.3093 16.427 16.1917 16.7499 16.5326 17.4892C16.8754 18.2265 16.554 19.1058 15.8138 19.4481C15.0756 19.7905 14.1931 19.4695 13.8503 18.7303C13.5094 17.9891 13.8308 17.1118 14.5691 16.7674Z" fill="white"/>
</g>
</g>
<defs>
<clipPath id="clip0_1136_41249">
<rect width="24" height="24" fill="white"/>
</clipPath>
<clipPath id="clip1_1136_41249">
<rect width="24" height="24" fill="white"/>
</clipPath>
</defs>
</svg>
