<svg width="24" height="24" viewBox="0 0 24 24" fill="none" xmlns="http://www.w3.org/2000/svg">
<path d="M5.5385 12.9231L18.4616 12.9231L18.4616 11.0769L5.5385 11.0769L5.5385 12.9231Z" fill="black"/>
<path fill-rule="evenodd" clip-rule="evenodd" d="M22.1539 12C22.1539 17.6078 17.6079 22.1538 12 22.1538C6.39222 22.1538 1.84619 17.6078 1.84619 12C1.84619 6.39216 6.39222 1.84613 12 1.84613C17.6079 1.84613 22.1539 6.39216 22.1539 12ZM20.3077 12C20.3077 16.5882 16.5883 20.3077 12 20.3077C7.41183 20.3077 3.69235 16.5882 3.69235 12C3.69235 7.41176 7.41183 3.69228 12 3.69228C16.5883 3.69228 20.3077 7.41176 20.3077 12Z" fill="black"/>
</svg>
