<svg width="25" height="24" viewBox="0 0 25 24" fill="none" xmlns="http://www.w3.org/2000/svg">
<g clip-path="url(#clip0_1102_67864)">
<path fill-rule="evenodd" clip-rule="evenodd" d="M13.3355 8.39951H11.8355V14.1715L16.3505 18.5395L17.393 17.461L13.3355 13.5355V8.39951ZM12.5855 21.43C8.33155 21.43 4.87105 17.968 4.87105 13.714C4.87105 9.46001 8.33155 5.99951 12.5855 5.99951C16.8395 5.99951 20.3 9.46001 20.3 13.714C20.3 17.968 16.8395 21.43 12.5855 21.43ZM20.2355 6.85601L21.3275 5.76251L18.8225 3.25751L17.435 4.64501C16.304 4.03901 15.047 3.63851 13.7105 3.49301V2.24951H15.5855V-0.000488281H9.58555V2.24951H11.4605V3.49301C10.124 3.63851 8.86705 4.03901 7.73605 4.64501L6.34855 3.25751L3.84355 5.76251L4.93555 6.85601C3.30355 8.67701 2.30005 11.0755 2.30005 13.714C2.30005 19.3945 6.90505 23.9995 12.5855 23.9995C18.266 23.9995 22.871 19.3945 22.871 13.714C22.871 11.0755 21.8675 8.67701 20.2355 6.85601Z" fill="black"/>
</g>
<defs>
<clipPath id="clip0_1102_67864">
<rect width="24" height="24" fill="white" transform="translate(0.5)"/>
</clipPath>
</defs>
</svg>
