<svg width="24" height="24" viewBox="0 0 24 24" fill="none" xmlns="http://www.w3.org/2000/svg">
<g clip-path="url(#clip0_1102_67933)">
<path fill-rule="evenodd" clip-rule="evenodd" d="M3.06147 7.21727L4.55397 7.36127C4.67697 6.08777 5.24397 4.95377 6.19497 4.08377L5.18247 2.97677C3.97047 4.08677 3.21747 5.59277 3.06147 7.21727ZM4.67247 1.27727L3.88647 -0.000732422C1.26747 1.61177 -0.180027 4.35527 0.0179733 7.33877L1.51497 7.23977C1.35447 4.82027 2.53497 2.59277 4.67247 1.27727ZM16.5 13.4993C13.191 13.4993 10.5 10.8098 10.5 7.49927C10.5 5.75177 11.2635 4.19027 12.4605 3.09377C12.9915 2.60777 13.602 2.20877 14.2815 1.93577C14.3625 1.90277 14.451 1.88777 14.5335 1.85777C14.7975 1.76477 15.0615 1.67327 15.3405 1.61777C15.7155 1.54127 16.1025 1.49927 16.5 1.49927C19.809 1.49927 22.5 4.19027 22.5 7.49927C22.5 7.88477 22.4565 8.25827 22.386 8.62277C22.362 8.75177 22.32 8.87327 22.287 8.99927C22.227 9.22577 22.164 9.44927 22.08 9.66527C22.0215 9.81527 21.951 9.95927 21.8805 10.1048C21.7965 10.2758 21.7095 10.4408 21.609 10.6028C21.513 10.7618 21.411 10.9133 21.3 11.0618C21.21 11.1848 21.1125 11.2988 21.012 11.4113C20.871 11.5733 20.73 11.7338 20.5725 11.8793C20.505 11.9408 20.433 11.9948 20.364 12.0533C19.671 12.6413 18.8535 13.0778 17.9445 13.3043C17.943 13.3043 17.943 13.3058 17.943 13.3058C17.478 13.4213 16.9995 13.4993 16.5 13.4993ZM24 7.49927C24 3.35777 20.6415 -0.000732422 16.5 -0.000732422C13.2645 -0.000732422 10.533 2.06027 9.47997 4.93127C7.21647 5.78477 6.05697 7.84577 6.05697 10.5578V15.4733L2.99997 18.0263V20.9993H8.99997C8.99997 22.6568 10.3425 23.9993 12 23.9993C13.656 23.9993 15 22.6568 15 20.9993H21V18.0263L17.943 15.4733V14.8553C21.393 14.1818 24 11.1473 24 7.49927ZM18.7665 4.97027L15.249 8.43677L14.238 7.42727L13.1775 8.48777L15.2415 10.5533L19.8195 6.03977L18.7665 4.97027Z" fill="black"/>
</g>
<defs>
<clipPath id="clip0_1102_67933">
<rect width="24" height="24" fill="white"/>
</clipPath>
</defs>
</svg>
