<svg width="25" height="24" viewBox="0 0 25 24" fill="none" xmlns="http://www.w3.org/2000/svg">
<g clip-path="url(#clip0_1102_67854)">
<path fill-rule="evenodd" clip-rule="evenodd" d="M12.5 7.5C10.0145 7.5 8 9.5145 8 12C8 14.4855 10.0145 16.5 12.5 16.5C14.984 16.5 17 14.4855 17 12C17 9.5145 14.984 7.5 12.5 7.5ZM12.5 17.25C9.3125 17.25 5.882 15.2715 3.281 12C5.882 8.73 9.3125 6.75 12.5 6.75C15.6875 6.75 19.118 8.73 21.719 12C19.118 15.2715 15.6875 17.25 12.5 17.25ZM12.5 4.5C8 4.5 3.5 7.5 0.5 12C3.5 16.5 8 19.5 12.5 19.5C17 19.5 21.5 16.5 24.5 12C21.5 7.5 17 4.5 12.5 4.5Z" fill="black"/>
<path fill-rule="evenodd" clip-rule="evenodd" d="M12.5 7.5C10.0145 7.5 8 9.5145 8 12C8 14.4855 10.0145 16.5 12.5 16.5C14.984 16.5 17 14.4855 17 12C17 9.5145 14.984 7.5 12.5 7.5ZM12.5 17.25C9.3125 17.25 5.882 15.2715 3.281 12C5.882 8.73 9.3125 6.75 12.5 6.75C15.6875 6.75 19.118 8.73 21.719 12C19.118 15.2715 15.6875 17.25 12.5 17.25ZM12.5 4.5C8 4.5 3.5 7.5 0.5 12C3.5 16.5 8 19.5 12.5 19.5C17 19.5 21.5 16.5 24.5 12C21.5 7.5 17 4.5 12.5 4.5Z" fill="black"/>
</g>
<defs>
<clipPath id="clip0_1102_67854">
<rect width="24" height="24" fill="white" transform="translate(0.5)"/>
</clipPath>
</defs>
</svg>
