<svg width="25" height="24" viewBox="0 0 25 24" fill="none" xmlns="http://www.w3.org/2000/svg">
<g clip-path="url(#clip0_1546_78863)">
<path fill-rule="evenodd" clip-rule="evenodd" d="M16.8334 13.5C16.5469 13.5 16.2709 13.455 15.9934 13.4145C15.6409 13.365 15.3019 13.2825 14.9719 13.1745C14.9539 13.1685 14.9344 13.1625 14.9164 13.1565C14.6059 13.0515 14.3104 12.9225 14.0254 12.771C13.9849 12.747 13.9429 12.7245 13.9024 12.7035C13.6429 12.5565 13.3999 12.396 13.1674 12.2145C13.1014 12.1635 13.0399 12.1095 12.9754 12.0555C12.7744 11.886 12.5839 11.7105 12.4069 11.5155C12.3229 11.424 12.2479 11.3265 12.1714 11.229C12.0289 11.052 11.8879 10.875 11.7664 10.6815C11.6764 10.5375 11.6029 10.3845 11.5234 10.233C11.4349 10.065 11.3434 9.9015 11.2714 9.723C11.1859 9.5145 11.1289 9.2925 11.0689 9.072C11.0314 8.931 10.9789 8.7975 10.9504 8.655C10.8754 8.2815 10.8334 7.896 10.8334 7.5C10.8334 7.3155 10.8709 7.1415 10.8874 6.96C10.9684 6.084 11.2309 5.2665 11.6479 4.5375C12.0049 3.9135 12.4669 3.3675 13.0159 2.91C13.0894 2.8485 13.1614 2.7855 13.2379 2.727C13.3864 2.6145 13.5394 2.5065 13.6999 2.406C13.8859 2.2905 14.0809 2.1885 14.2804 2.0925C14.4139 2.0295 14.5474 1.9695 14.6854 1.914C14.9389 1.815 15.2014 1.734 15.4714 1.6695C15.5704 1.647 15.6694 1.626 15.7699 1.6065C16.1149 1.5435 16.4689 1.5 16.8334 1.5C20.1424 1.5 22.8334 4.191 22.8334 7.5C22.8334 7.8855 22.7899 8.259 22.7194 8.6235C22.6954 8.7525 22.6534 8.874 22.6204 9C22.5604 9.225 22.4974 9.45 22.4134 9.6645C22.3549 9.816 22.2844 9.96 22.2139 10.104C22.1299 10.2765 22.0429 10.4415 21.9424 10.602C21.8464 10.7625 21.7444 10.9125 21.6334 11.0625C21.5434 11.184 21.4444 11.298 21.3454 11.4105C21.2044 11.574 21.0634 11.733 20.9059 11.88C20.8399 11.9415 20.7664 11.994 20.6959 12.0525C20.0044 12.642 19.1854 13.0785 18.2779 13.3035L18.2764 13.305C17.8114 13.4205 17.3329 13.5 16.8334 13.5ZM18.6004 18.7185H6.06637L8.67337 16.539V10.557C8.67337 9.4425 8.91787 8.5935 9.38137 7.9725C9.61237 11.607 12.4099 14.511 15.9934 14.9145V16.539L18.6004 18.7185ZM24.3334 7.5C24.3334 3.357 20.9764 0 16.8334 0C13.6084 0 10.8799 2.0475 9.82237 4.9065C7.54537 5.757 6.39037 7.8375 6.39037 10.557V15.4725L3.33337 18.027V21H9.33337C9.33337 22.656 10.6774 24 12.3334 24C13.9894 24 15.3334 22.656 15.3334 21H21.3334V18.027L18.2764 15.4725V14.8545C21.7279 14.181 24.3334 11.148 24.3334 7.5ZM19.1014 4.9695L15.5824 8.439L14.5699 7.4265L13.5094 8.487L15.5734 10.551L20.1529 6.039L19.1014 4.9695Z" fill="black"/>
</g>
<defs>
<clipPath id="clip0_1546_78863">
<rect width="24" height="24" fill="white" transform="translate(0.333374)"/>
</clipPath>
</defs>
</svg>
