<svg width="25" height="24" viewBox="0 0 25 24" fill="none" xmlns="http://www.w3.org/2000/svg">
<path d="M10.0468 16.4375V18.2082C7.13472 17.3548 5.02762 14.9014 5.02762 12C5.02762 10.3999 5.66686 8.8639 6.85062 7.6692L4.19898 5.55714C2.44701 7.34919 1.5 9.63193 1.5 12.0213C1.5 16.6935 5.16967 20.6189 10.0705 21.5576V23.8404C10.0705 23.9897 10.2599 24.0537 10.3782 23.947L14.4741 20.2562C14.4741 20.2562 14.5451 20.0856 14.4741 20.0216L10.3782 16.3308C10.3782 16.3308 10.0705 16.3095 10.0705 16.4375H10.0468Z" fill="black"/>
<path d="M13.9532 2.44237V0.159639C13.9532 0.0103014 13.7638 -0.0537003 13.6454 0.0529696L9.54961 3.74375C9.54961 3.74375 9.47858 3.91442 9.54961 3.97842L13.6454 7.6692C13.6454 7.6692 13.9532 7.69053 13.9532 7.56253V5.79181C16.8653 6.64517 18.9724 9.09858 18.9724 12C18.9724 13.6 18.3331 15.1361 17.1494 16.3308L19.801 18.4429C21.553 16.6508 22.5 14.3681 22.5 11.9787C22.5 7.30652 18.8303 3.38107 13.9295 2.44237H13.9532Z" fill="black"/>
</svg>
