<svg width="25" height="24" viewBox="0 0 25 24" fill="none" xmlns="http://www.w3.org/2000/svg">
<path d="M6.0385 12.9231L18.9616 12.9231L18.9616 11.077L6.0385 11.077L6.0385 12.9231Z" fill="black"/>
<path fill-rule="evenodd" clip-rule="evenodd" d="M22.6539 12C22.6539 17.6079 18.1079 22.1539 12.5 22.1539C6.89222 22.1539 2.34619 17.6079 2.34619 12C2.34619 6.39222 6.89222 1.84619 12.5 1.84619C18.1079 1.84619 22.6539 6.39222 22.6539 12ZM20.8077 12C20.8077 16.5883 17.0883 20.3077 12.5 20.3077C7.91183 20.3077 4.19235 16.5883 4.19235 12C4.19235 7.41183 7.91183 3.69235 12.5 3.69235C17.0883 3.69235 20.8077 7.41183 20.8077 12Z" fill="black"/>
</svg>
